# xmcd CD database file
#
# Track frame offsets:
#	180
#	13580
#	26555
#	39379
#	53570
#	65616
#	79100
#	91839
#	103455
#	115532
#	129708
#	140763
#	153304
#	164898
#	179896
#	192510
#	207448
#	221972
#
# Disc length: 3138 seconds
#
# Revision: 2
# Processed by: cddbd v1.5.1PL2 Copyright (c) Steve Scherf et al.
# Submitted via: CDex 1.51
#
DISCID=120c4012
DTITLE=Nat King Cole - Sweet Lorraine - Disk1
DYEAR=2000
DGENRE=Jazz
TTITLE0=Sweet Lorraine
TTITLE1=Honey Hush
TTITLE2=Jack the bellboy
TTITLE3=Dough-ra-me
TTITLE4=Jivin' with Jarvis
TTITLE5=Blue because of you
TTITLE6=This side up
TTITLE7=Honeysuckle rose
TTITLE8=Gone with the Draft
TTITLE9=Slow down
TTITLE10=Babs
TTITLE11=Early morning blues
TTITLE12=Scotchin' with the soda
TTITLE13=This will make you laugh
TTITLE14=I like to riff
TTITLE15=That ain't right
TTITLE16=Call they police
TTITLE17=Hit that jive jack
EXTD=YEAR: 2000
EXTT0=
EXTT1=
EXTT2=
EXTT3=
EXTT4=
EXTT5=
EXTT6=
EXTT7=
EXTT8=
EXTT9=
EXTT10=
EXTT11=
EXTT12=
EXTT13=
EXTT14=
EXTT15=
EXTT16=
EXTT17=
PLAYORDER=
